<?xml version="1.0" encoding="iso-8859-1"?>
<!-- Generator: Adobe Illustrator 19.0.0, SVG Export Plug-In . SVG Version: 6.00 Build 0)  -->
<svg version="1.1" id="Capa_1" xmlns="http://www.w3.org/2000/svg" xmlns:xlink="http://www.w3.org/1999/xlink" x="0px" y="0px"
	 viewBox="0 0 511.839 511.839" style="enable-background:new 0 0 511.839 511.839;" xml:space="preserve">
<g>
	<path style="fill:#66C6B9;" d="M252.8,134.4c2.133,6.4,4.267,12.8,7.467,18.133L246.4,179.2l21.333,21.333l25.6-13.867
		c5.333,3.2,11.733,5.333,18.133,7.467l8.533,28.8h29.867l8.533-28.8c6.4-2.133,12.8-4.267,18.133-7.467l26.667,13.867
		l21.333-21.333l-13.867-25.6c3.2-5.333,5.333-11.733,7.467-18.133l28.8-8.533V96L416,87.467c-2.133-6.4-4.267-12.8-7.467-18.133
		l14.933-26.667l-21.333-21.333l-25.6,13.867C371.2,32,364.8,29.867,358.4,27.733L348.8,0h-29.867L310.4,28.8
		c-6.4,2.133-12.8,4.267-18.133,7.467l-25.6-13.867l-21.333,21.333l13.867,25.6c-3.2,5.333-5.333,11.733-7.467,18.133L224,96v29.867
		L252.8,134.4z M283.733,110.933c0-27.733,22.4-50.133,50.133-50.133C361.6,60.8,384,83.2,384,110.933s-22.4,50.133-50.133,50.133
		C307.2,161.067,283.733,138.667,283.733,110.933z"/>
	<circle style="fill:#66C6B9;" cx="334.933" cy="110.933" r="24.533"/>
</g>
<g>
	<path style="fill:#F3705A;" d="M33.067,306.133L0,332.8l16,38.4l41.6-5.333c6.4,7.467,12.8,13.867,20.267,20.267L73.6,428.8
		l39.467,16l25.6-33.067c9.6,1.067,19.2,1.067,27.733,0l26.667,33.067l38.4-16l-5.333-41.6c7.467-6.4,13.867-12.8,20.267-20.267
		l42.667,4.267l16-39.467L272,306.133c1.067-9.6,1.067-19.2,0-27.733l33.067-26.667l-16-38.4l-41.6,5.333
		c-6.4-7.467-12.8-13.867-20.267-20.267l4.267-42.667l-39.467-16l-24.533,30.933c-9.6-1.067-19.2-1.067-27.733,0l-27.733-32
		l-38.4,16l5.333,41.6c-8.533,6.4-14.933,12.8-21.333,20.267l-42.667-4.267L0,251.733l33.067,25.6
		C32,286.933,32,296.533,33.067,306.133z M87.467,318.933c-14.933-36.267,2.133-77.867,38.4-92.8
		c36.267-14.933,77.867,2.133,92.8,38.4c14.933,36.267-2.133,77.867-38.4,92.8C145.067,372.267,103.467,355.2,87.467,318.933z"/>
	<circle style="fill:#F3705A;" cx="153.6" cy="291.2" r="35.2"/>
</g>
<path style="fill:#415A6B;" d="M194.133,194.133c-56.533,56.533-56.533,149.333,0,206.933c56.533,56.533,149.333,56.533,206.933,0
	c56.533-56.533,56.533-149.333,0-206.933C343.467,137.6,251.733,137.6,194.133,194.133z M370.133,370.133
	c-40.533,40.533-105.6,40.533-145.067,0c-40.533-40.533-40.533-105.6,0-145.067s105.6-40.533,145.067,0
	S410.667,330.667,370.133,370.133z"/>
<path style="fill:#344A5E;" d="M432,377.6c4.267,4.267,4.267,11.733,0,16l-39.467,39.467c-4.267,4.267-11.733,4.267-16,0
	c-4.267-4.267-4.267-11.733,0-16L416,377.6C421.333,373.333,427.733,373.333,432,377.6z"/>
<path style="fill:#FFD15C;" d="M500.267,500.267L500.267,500.267C483.2,517.333,455.467,515.2,441.6,496l-49.067-64L432,392.533
	l64,49.067C515.2,456.533,517.333,484.267,500.267,500.267z"/>
<g>
</g>
<g>
</g>
<g>
</g>
<g>
</g>
<g>
</g>
<g>
</g>
<g>
</g>
<g>
</g>
<g>
</g>
<g>
</g>
<g>
</g>
<g>
</g>
<g>
</g>
<g>
</g>
<g>
</g>
</svg>
